<svg xmlns="http://www.w3.org/2000/svg" id="rank-9" viewBox="0 0 71 154" width="100%" height="100%" class="svg-icon svg-icon-rank-9 top-10-rank"><path stroke="#595959" stroke-width="4" d="M40.0597376,115.807692 L4.47328474,115.807692 C7.45109332,126.586242 13.4362856,135.15497 22.4670906,141.582071 C32.2129251,148.518048 44.5640134,152 59.5759717,152 C78.2141671,152 92.5105725,145.697944 102.6454,133.074799 C112.853557,120.360322 118,101.543854 118,76.5769231 C118,62.1603327 115.678843,49.3016297 111.046669,37.9886125 C106.453069,26.7698049 99.6241767,17.9802976 90.5435117,11.5767831 C81.5017862,5.20072813 70.1375399,2 56.3957597,2 C49.4158116,2 42.68229,3.15952329 36.1849549,5.47966815 C29.7045526,7.79376647 23.8782903,11.1932931 18.6948526,15.6846002 C13.5316746,20.1583529 9.45923583,25.508367 6.46782377,31.7491046 C3.4928156,37.95562 2,45.0644366 2,53.0961538 C2,61.9117395 4.02797967,69.7019439 8.0788911,76.5056791 C12.1434539,83.3323424 17.5832537,88.6925139 24.4218542,92.6108203 C31.2518358,96.5241882 38.8590885,98.4807692 47.2791519,98.4807692 C55.0853554,98.4807692 61.6095996,97.3619306 66.8547126,95.1478231 C72.0569983,92.9517941 76.4513169,89.5970183 80.0605818,85.0622151 L84.0584687,80.039134 L83.6207883,86.4440446 C82.74746,99.2241219 80.0984349,108.438199 75.5533003,114.10687 C70.9310132,119.871766 64.7726909,122.788462 57.2438163,122.788462 C52.8691399,122.788462 49.1904302,122.100251 46.212535,120.692834 C43.5930338,119.454801 41.5307848,117.825945 40.0597376,115.807692 Z M57.5,31 C63.3657106,31 68.4419893,32.9364861 72.6299874,36.7826253 C76.8609583,40.6682294 79,45.6186068 79,51.5 C79,57.3813932 76.8609583,62.3317706 72.6299874,66.2173747 C68.4419893,70.0635139 63.3657106,72 57.5,72 C51.6342894,72 46.5580107,70.0635139 42.3700126,66.2173747 C38.1390417,62.3317706 36,57.3813932 36,51.5 C36,45.6186068 38.1390417,40.6682294 42.3700126,36.7826253 C46.5580107,32.9364861 51.6342894,31 57.5,31 Z" stroke-linejoin="square"/></svg>