<svg xmlns="http://www.w3.org/2000/svg" version="1.0" width="1439.000000pt" height="315.000000pt" viewBox="0 0 1439.000000 315.000000" preserveAspectRatio="xMidYMid meet">

<g transform="translate(0.000000,315.000000) scale(0.100000,-0.100000)" fill="#e50914" stroke="none">
<path d="M2748 3040 c-142 -24 -255 -78 -338 -160 -67 -66 -100 -120 -137 -226 l-28 -79 -3 -825 c-4 -866 -2 -904 41 -1020 44 -121 138 -230 243 -283 71 -36 177 -58 284 -58 375 -1 628 155 726 447 41 124 46 230 42 1001 -4 712 -4 719 -27 793 -85 282 -304 423 -649 419 -59 -1 -128 -5 -154 -9z m235 -365 c24 -4 53 -20 78 -42 72 -65 70 -41 67 -914 l-3 -774 -22 -42 c-42 -78 -122 -123 -219 -123 -99 0 -173 57 -193 149 -7 36 -11 292 -11 805 0 639 2 760 15 803 18 60 45 98 87 119 34 18 112 33 143 28 11 -1 37 -6 58 -9z" fill="#e50914"/>
<path d="M10216 3030 c-213 -45 -348 -158 -422 -350 l-29 -75 -3 -789 c-2 -761 -2 -792 17 -868 40 -158 125 -282 249 -365 77 -51 230 -101 350 -114 379 -40 624 111 699 430 16 70 18 142 18 851 0 707 -2 782 -18 850 -70 299 -293 451 -657 449 -72 0 -148 -7 -204 -19z m326 -361 c45 -23 79 -64 93 -113 13 -42 15 -167 15 -792 0 -812 0 -805 -58 -866 -72 -77 -257 -67 -331 18 -61 69 -61 65 -61 864 0 804 0 798 62 856 37 35 76 52 128 56 46 4 123 -8 152 -23z" fill="#e50914"/>
<path d="M5013 3023 l-162 -3 -5 -28 c-9 -42 -167 -1000 -245 -1487 -40 -242 -74 -453 -78 -470 -4 -21 -17 37 -44 200 -20 127 -95 580 -165 1008 l-128 777 -223 0 c-159 0 -223 -3 -223 -11 0 -6 49 -296 110 -643 124 -718 270 -1568 295 -1731 10 -60 21 -114 26 -119 7 -8 381 5 581 20 l77 6 6 41 c39 239 200 1169 296 1712 66 374 121 691 122 704 2 29 7 29 -240 24z" fill="#e50914"/>
<path d="M5460 1794 l0 -1237 61 7 c34 3 133 6 220 6 l159 0 0 1230 0 1230 -220 0 -220 0 0 -1236z" fill="#e50914"/>
<path d="M6220 1803 l0 -1226 167 6 c91 4 361 7 600 7 l433 0 0 180 0 180 -380 0 -380 0 0 360 0 360 305 0 305 0 0 175 0 175 -305 0 -305 0 0 330 0 330 380 0 380 0 0 175 0 175 -600 0 -600 0 0 -1227z" fill="#e50914"/>
<path d="M8287 3023 c-4 -3 -7 -82 -7 -175 l0 -168 398 -2 399 -3 -261 -540 c-144 -297 -332 -690 -418 -873 l-158 -332 0 -174 0 -174 238 -6 c395 -11 810 -25 940 -32 l122 -6 0 185 0 185 -172 7 c-95 3 -284 10 -420 13 l-247 7 168 355 c92 195 281 590 420 878 l251 523 0 163 0 163 -242 6 c-313 9 -1003 9 -1011 0z" fill="#e50914"/>
<path d="M100 1575 c0 -1369 1 -1445 18 -1445 9 0 97 10 195 22 l177 21 1 1016 c0 559 2 1012 5 1006 4 -12 166 -1013 254 -1570 34 -214 63 -395 64 -400 3 -7 73 -3 212 13 115 13 209 24 210 25 1 1 34 228 73 503 93 647 220 1486 226 1493 3 2 4 -437 3 -977 l-3 -982 30 0 c36 0 341 29 373 36 l22 4 0 1340 0 1340 -309 0 -309 0 -5 -22 c-7 -26 -186 -1193 -249 -1621 -25 -173 -45 -281 -50 -270 -4 10 -75 434 -158 943 -83 509 -154 935 -157 948 l-5 22 -309 0 -309 0 0 -1445z" fill="#e50914"/>
<path d="M11370 1725 c0 -712 3 -1295 8 -1295 4 0 81 -7 172 -15 91 -8 177 -15 192 -15 l28 0 2 958 3 957 102 -360 c135 -475 252 -899 354 -1285 45 -173 84 -316 85 -318 1 -2 89 -12 195 -22 107 -11 209 -22 227 -24 l32 -5 0 1360 0 1359 -197 0 -198 0 2 -787 c1 -483 -2 -780 -7 -768 -5 11 -46 153 -91 315 -78 286 -289 1036 -330 1173 l-20 67 -279 0 -280 0 0 -1295z" fill="#e50914"/>
<path d="M13080 1646 l0 -1375 43 -6 c23 -3 143 -17 267 -31 124 -13 367 -43 541 -64 175 -22 326 -40 338 -40 21 0 21 3 21 215 0 118 -3 215 -7 215 -17 -1 -710 72 -730 76 l-23 4 0 414 0 413 48 -4 c148 -11 492 -33 520 -33 l32 0 0 205 0 205 -67 1 c-38 0 -171 6 -298 12 l-230 12 -3 383 -2 382 380 -7 380 -6 0 201 0 202 -605 0 -605 0 0 -1374z" fill="#e50914"/>
</g>
</svg>